<svg width="29" height="28" viewBox="0 0 29 28" fill="none" xmlns="http://www.w3.org/2000/svg">
<path d="M6.0887 28H23.2156C26.3091 28 28.8262 25.5138 28.8262 22.4583V5.54167C28.8262 2.48617 26.3091 0 23.2156 0H6.0887C2.99522 0 0.478149 2.48617 0.478149 5.54167V22.4583C0.478149 25.5138 2.99522 28 6.0887 28ZM2.2499 5.54167C2.2499 3.451 3.97205 1.75 6.0887 1.75H23.2156C25.3323 1.75 27.0544 3.451 27.0544 5.54167V22.4583C27.0544 24.549 25.3323 26.25 23.2156 26.25H6.0887C3.97205 26.25 2.2499 24.549 2.2499 22.4583V5.54167Z" fill="white"/>
<path d="M14.6529 21.1517C18.6453 21.1517 21.8935 17.9434 21.8935 14.0001C21.8935 10.0567 18.6453 6.84839 14.6529 6.84839C10.6606 6.84839 7.41235 10.0567 7.41235 14.0001C7.41235 17.9434 10.6606 21.1517 14.6529 21.1517ZM14.6529 8.59839C17.6684 8.59839 20.1217 11.0216 20.1217 14.0001C20.1217 16.9786 17.6684 19.4017 14.6529 19.4017C11.6374 19.4017 9.18411 16.9786 9.18411 14.0001C9.18411 11.0216 11.6374 8.59839 14.6529 8.59839Z" fill="white"/>
<path d="M22.1626 8.58891C23.3272 8.58891 24.2048 7.72558 24.2048 6.58108C24.2048 5.38758 23.2812 4.57324 22.1638 4.57324C20.9992 4.57324 20.1216 5.43658 20.1216 6.58108C20.1216 7.77224 21.0405 8.58891 22.1626 8.58891ZM22.3717 6.38858C22.7449 6.71408 21.8933 7.10958 21.8933 6.58224C21.8933 6.26724 22.3268 6.34891 22.3717 6.38858Z" fill="white"/>
</svg>
